<svg width="34" height="34" viewBox="0 0 34 34" fill="none" xmlns="http://www.w3.org/2000/svg">
<g clip-path="url(#clip0_124_147)">
<path d="M5.65489 31.1027C5.09752 31.1042 4.54539 30.9951 4.03045 30.7818C3.51551 30.5685 3.04798 30.2552 2.65491 29.86L0.47208 27.9175C0.191992 27.6678 0.0225759 27.3171 0.00110042 26.9425C-0.0203751 26.5678 0.107849 26.2 0.357566 25.9199C0.607283 25.6398 0.958036 25.4704 1.33266 25.4489C1.70729 25.4275 2.07511 25.5557 2.35519 25.8054L4.59599 27.8044C4.72427 27.9485 4.88067 28.0648 5.05557 28.1461C5.23046 28.2275 5.42016 28.2722 5.61298 28.2775C5.8058 28.2828 5.99766 28.2486 6.17676 28.1769C6.35587 28.1053 6.51841 27.9978 6.65441 27.861L11.7439 23.0104C11.8768 22.8752 12.0356 22.7681 12.2108 22.6956C12.3859 22.623 12.5739 22.5864 12.7635 22.5879C12.9531 22.5895 13.1405 22.6291 13.3144 22.7046C13.4884 22.78 13.6454 22.8896 13.7761 23.027C13.9068 23.1643 14.0086 23.3266 14.0753 23.5041C14.142 23.6816 14.1724 23.8706 14.1645 24.0601C14.1567 24.2495 14.1108 24.4355 14.0297 24.6068C13.9485 24.7782 13.8337 24.9315 13.6921 25.0575L8.62376 29.8841C8.23325 30.2723 7.77003 30.5798 7.26061 30.7889C6.75119 30.998 6.20555 31.1046 5.65489 31.1027ZM32.5161 29.689H18.3786C18.0037 29.689 17.6441 29.54 17.379 29.2749C17.1138 29.0098 16.9649 28.6502 16.9649 28.2752C16.9649 27.9003 17.1138 27.5407 17.379 27.2756C17.6441 27.0104 18.0037 26.8615 18.3786 26.8615H32.5161C32.8911 26.8615 33.2507 27.0104 33.5158 27.2756C33.7809 27.5407 33.9299 27.9003 33.9299 28.2752C33.9299 28.6502 33.7809 29.0098 33.5158 29.2749C33.2507 29.54 32.8911 29.689 32.5161 29.689ZM5.65489 19.7927C5.09752 19.7942 4.54539 19.6851 4.03045 19.4718C3.51551 19.2585 3.04798 18.9452 2.65491 18.55L0.414116 16.3092C0.15659 16.0426 0.014092 15.6855 0.0173131 15.3148C0.0205342 14.9441 0.169217 14.5895 0.431338 14.3274C0.693458 14.0653 1.04804 13.9166 1.41873 13.9134C1.78941 13.9102 2.14652 14.0527 2.41316 14.3102L4.65537 16.551C4.9245 16.8083 5.28252 16.952 5.65489 16.952C6.02726 16.952 6.38528 16.8083 6.65441 16.551L11.7439 11.7004C12.0154 11.4413 12.3786 11.3007 12.7538 11.3094C13.129 11.3182 13.4853 11.4756 13.7444 11.7471C14.0035 12.0185 14.1441 12.3818 14.1353 12.757C14.1266 13.1321 13.9692 13.4884 13.6977 13.7475L8.62376 18.5741C8.23325 18.9623 7.77003 19.2698 7.26061 19.4789C6.75119 19.688 6.20555 19.7946 5.65489 19.7927ZM32.5161 18.379H18.3786C18.0037 18.379 17.6441 18.23 17.379 17.9649C17.1138 17.6998 16.9649 17.3402 16.9649 16.9652C16.9649 16.5903 17.1138 16.2307 17.379 15.9656C17.6441 15.7004 18.0037 15.5515 18.3786 15.5515H32.5161C32.8911 15.5515 33.2507 15.7004 33.5158 15.9656C33.7809 16.2307 33.9299 16.5903 33.9299 16.9652C33.9299 17.3402 33.7809 17.6998 33.5158 17.9649C33.2507 18.23 32.8911 18.379 32.5161 18.379ZM5.65489 8.48273C5.09752 8.48419 4.54539 8.37511 4.03045 8.16181C3.51551 7.9485 3.04798 7.6352 2.65491 7.24004L0.47208 5.29755C0.191992 5.04783 0.0225759 4.69708 0.00110042 4.32245C-0.0203751 3.94782 0.107849 3.58001 0.357566 3.29992C0.607283 3.01983 0.958036 2.85041 1.33266 2.82894C1.70729 2.80746 2.07511 2.93569 2.35519 3.1854L4.59599 5.18445C4.72427 5.3285 4.88067 5.44478 5.05557 5.52613C5.23046 5.60749 5.42016 5.65218 5.61298 5.65748C5.8058 5.66278 5.99766 5.62856 6.17676 5.55694C6.35587 5.48531 6.51841 5.37779 6.65441 5.241L11.7496 0.390421C12.0235 0.146507 12.3816 0.0186314 12.7481 0.0338038C13.1146 0.0489761 13.4609 0.206008 13.7137 0.471733C13.9666 0.737457 14.1063 1.09107 14.1033 1.45787C14.1003 1.82468 13.9549 2.17597 13.6977 2.43753L8.62376 7.26407C8.23325 7.65231 7.77003 7.95978 7.26061 8.16888C6.75119 8.37799 6.20555 8.48463 5.65489 8.48273ZM32.5161 7.06898H18.3786C18.0037 7.06898 17.6441 6.92003 17.379 6.6549C17.1138 6.38977 16.9649 6.03018 16.9649 5.65523C16.9649 5.28028 17.1138 4.92068 17.379 4.65555C17.6441 4.39042 18.0037 4.24148 18.3786 4.24148H32.5161C32.8911 4.24148 33.2507 4.39042 33.5158 4.65555C33.7809 4.92068 33.9299 5.28028 33.9299 5.65523C33.9299 6.03018 33.7809 6.38977 33.5158 6.6549C33.2507 6.92003 32.8911 7.06898 32.5161 7.06898Z" fill="#F4F4F9"/>
</g>
<defs>
<clipPath id="clip0_124_147">
<rect width="33.93" height="33.93" fill="white"/>
</clipPath>
</defs>
</svg>
