<svg width="34" height="34" viewBox="0 0 34 34" fill="none" xmlns="http://www.w3.org/2000/svg">
<g clip-path="url(#clip0_189_658)">
<path d="M0 26.8613C0.00224483 28.7354 0.747707 30.532 2.07287 31.8572C3.39803 33.1824 5.19469 33.9278 7.06875 33.9301H26.8613C28.7353 33.9278 30.532 33.1824 31.8571 31.8572C33.1823 30.532 33.9278 28.7354 33.93 26.8613V14.1376H0V26.8613ZM24.0338 20.4994C24.4532 20.4994 24.8632 20.6238 25.2119 20.8568C25.5606 21.0899 25.8324 21.4211 25.993 21.8085C26.1535 22.196 26.1955 22.6224 26.1136 23.0338C26.0318 23.4451 25.8298 23.823 25.5333 24.1196C25.2367 24.4162 24.8588 24.6181 24.4475 24.7C24.0361 24.7818 23.6097 24.7398 23.2222 24.5793C22.8347 24.4188 22.5035 24.147 22.2705 23.7982C22.0375 23.4495 21.9131 23.0395 21.9131 22.6201C21.9131 22.0576 22.1365 21.5183 22.5342 21.1206C22.9319 20.7229 23.4713 20.4994 24.0338 20.4994ZM16.965 20.4994C17.3844 20.4994 17.7944 20.6238 18.1432 20.8568C18.4919 21.0899 18.7637 21.4211 18.9242 21.8085C19.0847 22.196 19.1267 22.6224 19.0449 23.0338C18.9631 23.4451 18.7611 23.823 18.4645 24.1196C18.1679 24.4162 17.7901 24.6181 17.3787 24.7C16.9674 24.7818 16.541 24.7398 16.1535 24.5793C15.766 24.4188 15.4348 24.147 15.2018 23.7982C14.9687 23.4495 14.8444 23.0395 14.8444 22.6201C14.8444 22.0576 15.0678 21.5183 15.4655 21.1206C15.8632 20.7229 16.4026 20.4994 16.965 20.4994ZM9.89625 20.4994C10.3157 20.4994 10.7257 20.6238 11.0744 20.8568C11.4231 21.0899 11.6949 21.4211 11.8555 21.8085C12.016 22.196 12.058 22.6224 11.9761 23.0338C11.8943 23.4451 11.6923 23.823 11.3958 24.1196C11.0992 24.4162 10.7213 24.6181 10.31 24.7C9.8986 24.7818 9.47222 24.7398 9.08472 24.5793C8.69723 24.4188 8.36603 24.147 8.13302 23.7982C7.9 23.4495 7.77563 23.0395 7.77563 22.6201C7.77563 22.0576 7.99905 21.5183 8.39674 21.1206C8.79444 20.7229 9.33383 20.4994 9.89625 20.4994V20.4994Z" fill="#F4F4F9"/>
<path d="M26.8613 2.8275H25.4475V1.41375C25.4475 1.0388 25.2986 0.679207 25.0334 0.414078C24.7683 0.148948 24.4087 0 24.0338 0C23.6588 0 23.2992 0.148948 23.0341 0.414078C22.7689 0.679207 22.62 1.0388 22.62 1.41375V2.8275H11.31V1.41375C11.31 1.0388 11.1611 0.679207 10.8959 0.414078C10.6308 0.148948 10.2712 0 9.89625 0C9.5213 0 9.16171 0.148948 8.89658 0.414078C8.63145 0.679207 8.4825 1.0388 8.4825 1.41375V2.8275H7.06875C5.19469 2.82974 3.39803 3.57521 2.07287 4.90037C0.747707 6.22553 0.00224483 8.02219 0 9.89625L0 11.31H33.93V9.89625C33.9278 8.02219 33.1823 6.22553 31.8571 4.90037C30.532 3.57521 28.7353 2.82974 26.8613 2.8275V2.8275Z" fill="#F4F4F9"/>
</g>
<defs>
<clipPath id="clip0_189_658">
<rect width="33.93" height="33.93" fill="white"/>
</clipPath>
</defs>
</svg>
