<svg width="34" height="34" viewBox="0 0 34 34" fill="none" xmlns="http://www.w3.org/2000/svg">
<path d="M32.5217 15.5227H1.47824C0.661822 15.5227 0 16.1845 0 17.0009C0 17.8174 0.661822 18.4792 1.47824 18.4792H32.5217C33.3381 18.4792 33.9999 17.8174 33.9999 17.0009C34 16.1845 33.3381 15.5227 32.5217 15.5227Z" fill="#F4F4F9"/>
<path d="M1.47824 8.13079H32.5217C33.3381 8.13079 33.9999 7.46897 33.9999 6.65255C33.9999 5.83614 33.3381 5.17432 32.5217 5.17432H1.47824C0.661822 5.17432 0 5.83614 0 6.65255C0 7.46897 0.661822 8.13079 1.47824 8.13079Z" fill="#F4F4F9"/>
<path d="M32.5217 25.8698H1.47824C0.661822 25.8698 0 26.5316 0 27.3481C0 28.1645 0.661822 28.8263 1.47824 28.8263H32.5217C33.3381 28.8263 33.9999 28.1645 33.9999 27.3481C34 26.5316 33.3381 25.8698 32.5217 25.8698Z" fill="#F4F4F9"/>
</svg>
