<svg width="22" height="22" viewBox="0 0 22 22" fill="none" xmlns="http://www.w3.org/2000/svg">
<g clip-path="url(#clip0_128_208)">
<path d="M1.07433 17.5254C0.386652 18.2128 0.00020767 19.1453 0 20.1177L0 21.9996H1.88192C2.8543 21.9994 3.78678 21.613 4.47425 20.9253L16.7053 8.69422L13.3054 5.29431L1.07433 17.5254Z" fill="#1E1E2F"/>
<path d="M21.216 0.783834C20.9928 0.560383 20.7277 0.383119 20.4359 0.262175C20.1442 0.141231 19.8314 0.0789795 19.5156 0.0789795C19.1997 0.0789795 18.887 0.141231 18.5952 0.262175C18.3034 0.383119 18.0384 0.560383 17.8152 0.783834L14.6013 3.99858L18.0012 7.3985L21.216 4.18467C21.4394 3.96145 21.6167 3.69638 21.7376 3.40461C21.8586 3.11284 21.9208 2.80009 21.9208 2.48425C21.9208 2.16841 21.8586 1.85566 21.7376 1.56389C21.6167 1.27212 21.4394 1.00705 21.216 0.783834V0.783834Z" fill="#1E1E2F"/>
</g>
<defs>
<clipPath id="clip0_128_208">
<rect width="22" height="22" fill="white"/>
</clipPath>
</defs>
</svg>
