<svg width="50" height="50" viewBox="0 0 50 50" fill="none" xmlns="http://www.w3.org/2000/svg">
<g clip-path="url(#clip0_261_232)">
<path d="M23.1708 26.117C22.5904 25.5362 21.9012 25.0755 21.1426 24.7612C20.3841 24.4468 19.571 24.285 18.7499 24.285C17.9288 24.285 17.1158 24.4468 16.3572 24.7612C15.5987 25.0755 14.9095 25.5362 14.3291 26.117L0.0791016 40.367C0.271728 42.9797 1.44349 45.4234 3.36009 47.2095C5.27668 48.9955 7.79683 49.9922 10.4166 50.0004H39.5833C41.6244 50 43.6198 49.3962 45.3187 48.265L23.1708 26.117Z" fill="black"/>
<path d="M37.4997 16.6673C39.8008 16.6673 41.6663 14.8018 41.6663 12.5006C41.6663 10.1995 39.8008 8.33398 37.4997 8.33398C35.1985 8.33398 33.333 10.1995 33.333 12.5006C33.333 14.8018 35.1985 16.6673 37.4997 16.6673Z" fill="black"/>
<path d="M39.5833 0H10.4167C7.65501 0.00330804 5.00741 1.10184 3.05462 3.05463C1.10184 5.00741 0.00330804 7.65501 0 10.4167L0 34.5542L11.3833 23.1708C12.3506 22.2033 13.4991 21.4357 14.7631 20.9121C16.0271 20.3884 17.3818 20.1189 18.75 20.1189C20.1182 20.1189 21.4729 20.3884 22.7369 20.9121C24.0009 21.4357 25.1494 22.2033 26.1167 23.1708L48.2646 45.3188C49.3958 43.6198 49.9996 41.6244 50 39.5833V10.4167C49.9967 7.65501 48.8982 5.00741 46.9454 3.05463C44.9926 1.10184 42.345 0.00330804 39.5833 0V0ZM37.5 20.8333C35.8518 20.8333 34.2407 20.3446 32.8702 19.4289C31.4998 18.5132 30.4317 17.2117 29.801 15.689C29.1703 14.1663 29.0052 12.4908 29.3268 10.8742C29.6483 9.25774 30.442 7.77288 31.6074 6.60744C32.7729 5.44201 34.2577 4.64833 35.8742 4.32679C37.4908 4.00525 39.1663 4.17027 40.689 4.801C42.2117 5.43173 43.5132 6.49984 44.4289 7.87025C45.3446 9.24066 45.8333 10.8518 45.8333 12.5C45.8333 14.7101 44.9554 16.8298 43.3926 18.3926C41.8298 19.9554 39.7101 20.8333 37.5 20.8333Z" fill="black"/>
</g>
<defs>
<clipPath id="clip0_261_232">
<rect width="50" height="50" fill="white"/>
</clipPath>
</defs>
</svg>
