<svg width="34" height="34" viewBox="0 0 34 34" fill="none" xmlns="http://www.w3.org/2000/svg">
<g clip-path="url(#clip0_124_98)">
<path d="M14.1379 32.5163C14.1379 32.8913 13.989 33.2509 13.7238 33.516C13.4587 33.7811 13.0991 33.9301 12.7241 33.9301H1.41379C1.03883 33.9301 0.679228 33.7811 0.41409 33.516C0.148953 33.2509 0 32.8913 0 32.5163C0 32.1414 0.148953 31.7818 0.41409 31.5166C0.679228 31.2515 1.03883 31.1025 1.41379 31.1025H12.7241C13.0991 31.1025 13.4587 31.2515 13.7238 31.5166C13.989 31.7818 14.1379 32.1414 14.1379 32.5163Z" fill="#F4F4F9"/>
<path d="M1.41379 28.2758H9.89655C10.2715 28.2758 10.6311 28.1269 10.8963 27.8618C11.1614 27.5966 11.3103 27.237 11.3103 26.862C11.3103 26.4871 11.1614 26.1275 10.8963 25.8623C10.6311 25.5972 10.2715 25.4482 9.89655 25.4482H1.41379C1.03883 25.4482 0.679228 25.5972 0.41409 25.8623C0.148953 26.1275 0 26.4871 0 26.862C0 27.237 0.148953 27.5966 0.41409 27.8618C0.679228 28.1269 1.03883 28.2758 1.41379 28.2758V28.2758Z" fill="#F4F4F9"/>
<path d="M1.41379 22.6215H7.06897C7.44393 22.6215 7.80353 22.4726 8.06867 22.2075C8.33381 21.9423 8.48276 21.5827 8.48276 21.2077C8.48276 20.8328 8.33381 20.4732 8.06867 20.208C7.80353 19.9429 7.44393 19.7939 7.06897 19.7939H1.41379C1.03883 19.7939 0.679228 19.9429 0.414091 20.208C0.148953 20.4732 0 20.8328 0 21.2077C0 21.5827 0.148953 21.9423 0.414091 22.2075C0.679228 22.4726 1.03883 22.6215 1.41379 22.6215V22.6215Z" fill="#F4F4F9"/>
<path d="M16.9655 0C12.466 0 8.15074 1.78743 4.96909 4.96909C1.78743 8.15074 0 12.466 0 16.9655C0 17.0518 0.0113103 17.1352 0.0127241 17.2214C0.461739 17.0569 0.935595 16.9703 1.41379 16.9655H7.06897C7.763 16.9632 8.44693 17.1317 9.06037 17.4563C9.67382 17.7809 10.1979 18.2516 10.5864 18.8267C10.9748 19.4019 11.2157 20.0638 11.2877 20.7541C11.3597 21.4444 11.2607 22.1418 10.9993 22.7847C11.5782 22.9366 12.118 23.2103 12.5826 23.5875C13.0473 23.9647 13.4261 24.4367 13.6937 24.972C13.9613 25.5073 14.1117 26.0935 14.1346 26.6915C14.1576 27.2896 14.0527 27.8856 13.8269 28.4399C14.3923 28.5841 14.9211 28.8454 15.3792 29.2069C15.8372 29.5683 16.2143 30.0219 16.486 30.5383C16.7578 31.0547 16.918 31.6224 16.9566 32.2046C16.9951 32.7868 16.911 33.3706 16.7096 33.9183C16.7959 33.9183 16.8793 33.931 16.9655 33.931C21.4651 33.931 25.7803 32.1436 28.962 28.962C32.1436 25.7803 33.931 21.4651 33.931 16.9655C33.931 12.466 32.1436 8.15074 28.962 4.96909C25.7803 1.78743 21.4651 0 16.9655 0V0ZM22.2065 22.2065C21.9413 22.4715 21.5818 22.6204 21.2069 22.6204C20.832 22.6204 20.4725 22.4715 20.2074 22.2065L15.966 17.9651C15.7008 17.7 15.5518 17.3405 15.5517 16.9655V9.89655C15.5517 9.52159 15.7007 9.16199 15.9658 8.89685C16.231 8.63171 16.5906 8.48276 16.9655 8.48276C17.3405 8.48276 17.7001 8.63171 17.9652 8.89685C18.2304 9.16199 18.3793 9.52159 18.3793 9.89655V16.3802L22.2065 20.2074C22.4715 20.4725 22.6204 20.832 22.6204 21.2069C22.6204 21.5818 22.4715 21.9413 22.2065 22.2065V22.2065Z" fill="#F4F4F9"/>
</g>
<defs>
<clipPath id="clip0_124_98">
<rect width="33.931" height="33.931" fill="white"/>
</clipPath>
</defs>
</svg>
