<svg width="34" height="34" viewBox="0 0 34 34" fill="none" xmlns="http://www.w3.org/2000/svg">
<g clip-path="url(#clip0_124_109)">
<path d="M33.9312 28.275C33.9312 29.0554 33.2978 29.6888 32.5174 29.6888H29.6898V32.5164C29.6898 33.2968 29.0564 33.9302 28.276 33.9302C27.4956 33.9302 26.8622 33.2968 26.8622 32.5164V29.6888H24.0346C23.2542 29.6888 22.6208 29.0554 22.6208 28.275C22.6208 27.4946 23.2542 26.8612 24.0346 26.8612H26.8622V24.0337C26.8622 23.2533 27.4956 22.6199 28.276 22.6199C29.0564 22.6199 29.6898 23.2533 29.6898 24.0337V26.8612H32.5174C33.2978 26.8612 33.9312 27.4946 33.9312 28.275Z" fill="#F4F4F9"/>
<path d="M19.843 28.2968C19.8374 23.6355 23.6108 19.8522 28.2706 19.8451C30.0845 19.8423 31.8518 20.4248 33.308 21.5064C35.8146 12.4793 30.5285 3.12986 21.5028 0.623206C12.4772 -1.88345 3.12915 3.40131 0.622496 12.4284C-1.88416 21.4555 3.40201 30.8063 12.4277 33.3129C15.3966 34.1372 18.5338 34.1372 21.5028 33.3129C20.4255 31.8624 19.843 30.1036 19.843 28.2968ZM18.3797 16.9963C18.3797 17.3724 18.2299 17.7315 17.9641 17.9973L13.7156 22.2472C13.1529 22.7901 12.2566 22.7745 11.7137 22.2118C11.1835 21.6633 11.1835 20.7924 11.7137 20.2438L15.5479 16.4096V9.91466C15.5479 9.13283 16.1813 8.49804 16.9645 8.49804C17.7464 8.49804 18.3797 9.13283 18.3797 9.91466V16.9963Z" fill="#F4F4F9"/>
</g>
<defs>
<clipPath id="clip0_124_109">
<rect width="33.931" height="33.931" fill="white"/>
</clipPath>
</defs>
</svg>
