<svg width="16" height="16" viewBox="0 0 16 16" fill="none" xmlns="http://www.w3.org/2000/svg">
<path d="M4.05267 15.0001C4.05291 14.735 4.15842 14.4808 4.34601 14.2934L9.46067 9.17876C9.61548 9.02399 9.73829 8.84024 9.82208 8.638C9.90586 8.43576 9.94898 8.219 9.94898 8.00009C9.94898 7.78119 9.90586 7.56442 9.82208 7.36219C9.73829 7.15995 9.61548 6.9762 9.46067 6.82143L4.35267 1.71009C4.17052 1.52149 4.06972 1.26889 4.072 1.00669C4.07428 0.744495 4.17945 0.493682 4.36485 0.308274C4.55026 0.122866 4.80108 0.0176971 5.06327 0.0154187C5.32547 0.0131402 5.57807 0.113935 5.76667 0.296093L10.8747 5.40343C11.5615 6.0916 11.9472 7.02416 11.9472 7.99643C11.9472 8.9687 11.5615 9.90125 10.8747 10.5894L5.76001 15.7041C5.62035 15.8438 5.44244 15.9391 5.2487 15.9778C5.05497 16.0165 4.85411 15.997 4.67147 15.9217C4.48882 15.8464 4.33257 15.7187 4.22245 15.5546C4.11232 15.3906 4.05324 15.1977 4.05267 15.0001V15.0001Z" fill="#1B1B25"/>
</svg>
