<svg width="34" height="34" viewBox="0 0 34 34" fill="none" xmlns="http://www.w3.org/2000/svg">
<g clip-path="url(#clip0_261_142)">
<path d="M17 0C13.6377 0 10.3509 0.997033 7.55531 2.86502C4.75968 4.733 2.58075 7.38804 1.29406 10.4944C0.00736586 13.6007 -0.329291 17.0189 0.326658 20.3165C0.982607 23.6142 2.6017 26.6433 4.97919 29.0208C7.35668 31.3983 10.3858 33.0174 13.6835 33.6734C16.9811 34.3293 20.3993 33.9926 23.5056 32.706C26.612 31.4193 29.267 29.2403 31.135 26.4447C33.003 23.6491 34 20.3623 34 17C33.9951 12.4928 32.2025 8.17163 29.0154 4.98457C25.8284 1.79751 21.5072 0.00487487 17 0V0ZM22.6667 18.4167H18.4167V22.6667C18.4167 23.0424 18.2674 23.4027 18.0017 23.6684C17.7361 23.9341 17.3757 24.0833 17 24.0833C16.6243 24.0833 16.2639 23.9341 15.9983 23.6684C15.7326 23.4027 15.5833 23.0424 15.5833 22.6667V18.4167H11.3333C10.9576 18.4167 10.5973 18.2674 10.3316 18.0017C10.0659 17.7361 9.91667 17.3757 9.91667 17C9.91667 16.6243 10.0659 16.2639 10.3316 15.9983C10.5973 15.7326 10.9576 15.5833 11.3333 15.5833H15.5833V11.3333C15.5833 10.9576 15.7326 10.5973 15.9983 10.3316C16.2639 10.0659 16.6243 9.91667 17 9.91667C17.3757 9.91667 17.7361 10.0659 18.0017 10.3316C18.2674 10.5973 18.4167 10.9576 18.4167 11.3333V15.5833H22.6667C23.0424 15.5833 23.4027 15.7326 23.6684 15.9983C23.9341 16.2639 24.0833 16.6243 24.0833 17C24.0833 17.3757 23.9341 17.7361 23.6684 18.0017C23.4027 18.2674 23.0424 18.4167 22.6667 18.4167Z" fill="#F4F4F9"/>
</g>
<defs>
<clipPath id="clip0_261_142">
<rect width="34" height="34" fill="white"/>
</clipPath>
</defs>
</svg>
