<svg width="34" height="38" viewBox="0 0 34 38" fill="none" xmlns="http://www.w3.org/2000/svg">
<path d="M0.636382 28.5C1.93873 30.773 4.8269 31.554 7.08723 30.2443C7.08878 30.2434 7.09025 30.2425 7.0918 30.2416L7.79242 29.8347C9.11499 30.9726 10.6352 31.8551 12.2765 32.4377V33.25C12.2765 35.8733 14.3913 38 17 38C19.6087 38 21.7235 35.8733 21.7235 33.25V32.4378C23.365 31.8542 24.8853 30.9707 26.2076 29.8316L26.9114 30.2401C29.1722 31.5517 32.0625 30.772 33.3668 28.4984C34.6711 26.2248 33.8957 23.3183 31.6348 22.0067L30.9358 21.6014C31.2505 19.8794 31.2505 18.1142 30.9358 16.3922L31.6348 15.9869C33.8957 14.6752 34.6711 11.7688 33.3668 9.49518C32.0625 7.22163 29.1723 6.44182 26.9114 7.75348L26.2107 8.16043C24.8869 7.02391 23.3656 6.14309 21.7235 5.56225V4.75C21.7235 2.12666 19.6087 0 17 0C14.3913 0 12.2765 2.12666 12.2765 4.75V5.56225C10.635 6.14583 9.1147 7.02933 7.79242 8.16844L7.08863 7.75838C4.82771 6.44664 1.93755 7.22646 0.633209 9.5C-0.671131 11.7735 0.104255 14.68 2.36517 15.9917L3.06424 16.397C2.74954 18.1189 2.74954 19.8842 3.06424 21.6062L2.36517 22.0115C0.110528 23.3267 -0.662348 26.2274 0.636382 28.5ZM17 12.6667C20.4782 12.6667 23.2979 15.5022 23.2979 19C23.2979 22.4978 20.4782 25.3333 17 25.3333C13.5218 25.3333 10.7021 22.4978 10.7021 19C10.7021 15.5022 13.5218 12.6667 17 12.6667Z" fill="#F4F4F9"/>
</svg>
